<svg width="46" height="56" viewBox="0 0 46 56" fill="none" xmlns="http://www.w3.org/2000/svg">
<rect y="4" width="46" height="46" rx="10" fill="#005365"/>
<path d="M23.6797 31.5078H18.0781V44H11.0469V9.875H23.7266C27.7578 9.875 30.8672 10.7734 33.0547 12.5703C35.2422 14.3672 36.3359 16.9062 36.3359 20.1875C36.3359 22.5156 35.8281 24.4609 34.8125 26.0234C33.8125 27.5703 32.2891 28.8047 30.2422 29.7266L37.625 43.6719V44H30.0781L23.6797 31.5078ZM18.0781 25.8125H23.75C25.5156 25.8125 26.8828 25.3672 27.8516 24.4766C28.8203 23.5703 29.3047 22.3281 29.3047 20.75C29.3047 19.1406 28.8438 17.875 27.9219 16.9531C27.0156 16.0312 25.6172 15.5703 23.7266 15.5703H18.0781V25.8125Z" fill="#FAFAFA"/>
</svg>
