<svg width="127" height="48" viewBox="0 0 127 48" fill="none" xmlns="http://www.w3.org/2000/svg">
<path d="M15.3691 31.9795C15.3691 30.7337 15.0472 29.7959 14.4033 29.166C13.7734 28.5221 12.6187 27.8573 10.939 27.1714C7.87354 26.0096 5.66895 24.6519 4.3252 23.0981C2.98145 21.5304 2.30957 19.6828 2.30957 17.5552C2.30957 14.9797 3.2194 12.915 5.03906 11.3613C6.87272 9.79362 9.19629 9.00977 12.0098 9.00977C13.8854 9.00977 15.5581 9.40869 17.0278 10.2065C18.4976 10.9904 19.6243 12.1032 20.4082 13.5449C21.2061 14.9867 21.605 16.6243 21.605 18.458H15.4531C15.4531 17.0303 15.1452 15.9455 14.5293 15.2036C13.9274 14.4478 13.0526 14.0698 11.9048 14.0698C10.827 14.0698 9.98714 14.3918 9.38525 15.0356C8.78337 15.6655 8.48242 16.5194 8.48242 17.5972C8.48242 18.437 8.81836 19.1999 9.49023 19.8857C10.1621 20.5576 11.3519 21.2575 13.0596 21.9854C16.041 23.0632 18.2036 24.3859 19.5474 25.9536C20.9051 27.5213 21.584 29.516 21.584 31.9375C21.584 34.597 20.7371 36.6756 19.0435 38.1733C17.3498 39.6711 15.0472 40.4199 12.1357 40.4199C10.1621 40.4199 8.36344 40.014 6.73975 39.2021C5.11605 38.3903 3.84229 37.2285 2.91846 35.7168C2.00863 34.2051 1.55371 32.4204 1.55371 30.3628H7.74756C7.74756 32.1265 8.09049 33.4072 8.77637 34.2051C9.46224 35.0029 10.582 35.4019 12.1357 35.4019C14.2913 35.4019 15.3691 34.2611 15.3691 31.9795Z" fill="#EAAA06"/>
<rect x="79" y="10" width="6" height="30" rx="3" fill="#EAAA06"/>
<rect x="59" y="10" width="6" height="30" rx="3" fill="#EAAA06"/>
<rect x="97.041" y="10.4667" width="29.959" height="29.959" rx="10" fill="#005365"/>
<path d="M112.8 28.1924H109.299V36H104.904V14.6719H112.829C115.349 14.6719 117.292 15.2334 118.659 16.3564C120.026 17.4795 120.71 19.0664 120.71 21.1172C120.71 22.5723 120.393 23.7881 119.758 24.7646C119.133 25.7314 118.181 26.5029 116.901 27.0791L121.516 35.7949V36H116.799L112.8 28.1924ZM109.299 24.6328H112.844C113.947 24.6328 114.802 24.3545 115.407 23.7979C116.013 23.2314 116.315 22.4551 116.315 21.4688C116.315 20.4629 116.027 19.6719 115.451 19.0957C114.885 18.5195 114.011 18.2314 112.829 18.2314H109.299V24.6328Z" fill="#FAFAFA"/>
<rect x="25" y="10" width="6" height="30" rx="3" fill="#EAAA06"/>
<rect x="15" y="15" width="7" height="6" rx="3" fill="#EAAA06"/>
<rect x="1" y="29" width="7" height="6" rx="3" fill="#EAAA06"/>
<rect x="40.3805" y="9.36658" width="5.86154" height="26.7026" rx="2.93077" transform="rotate(36.2762 40.3805 9.36658)" fill="#EAAA06"/>
<rect x="30.3106" y="22.5186" width="5.86154" height="20.841" rx="2.93077" transform="rotate(-25.5472 30.3106 22.5186)" fill="#EAAA06"/>
<rect x="48" y="10" width="6" height="30" rx="3" fill="#EAAA06"/>
<rect x="61" y="10" width="16" height="6" rx="3" fill="#EAAA06"/>
<rect x="62" y="23" width="13" height="5" rx="2.5" fill="#EAAA06"/>
<rect x="61" y="35" width="16" height="5" rx="2.5" fill="#EAAA06"/>
<rect x="81" y="35" width="15" height="5" rx="2.5" fill="#EAAA06"/>
</svg>
