<svg width="193" height="50" viewBox="0 0 193 50" fill="none" xmlns="http://www.w3.org/2000/svg">
<rect x="147" y="2" width="46" height="46" rx="10" fill="#005365"/>
<path d="M20.875 36.0625C20.875 34.2083 20.3958 32.8125 19.4375 31.875C18.5 30.9167 16.7812 29.9271 14.2812 28.9062C9.71875 27.1771 6.4375 25.1562 4.4375 22.8438C2.4375 20.5104 1.4375 17.7604 1.4375 14.5938C1.4375 10.7604 2.79167 7.6875 5.5 5.375C8.22917 3.04167 11.6875 1.875 15.875 1.875C18.6667 1.875 21.1562 2.46875 23.3438 3.65625C25.5312 4.82292 27.2083 6.47917 28.375 8.625C29.5625 10.7708 30.1562 13.2083 30.1562 15.9375H21C21 13.8125 20.5417 12.1979 19.625 11.0938C18.7292 9.96875 17.4271 9.40625 15.7188 9.40625C14.1146 9.40625 12.8646 9.88542 11.9688 10.8438C11.0729 11.7812 10.625 13.0521 10.625 14.6562C10.625 15.9062 11.125 17.0417 12.125 18.0625C13.125 19.0625 14.8958 20.1042 17.4375 21.1875C21.875 22.7917 25.0938 24.7604 27.0938 27.0938C29.1146 29.4271 30.125 32.3958 30.125 36C30.125 39.9583 28.8646 43.0521 26.3438 45.2812C23.8229 47.5104 20.3958 48.625 16.0625 48.625C13.125 48.625 10.4479 48.0208 8.03125 46.8125C5.61458 45.6042 3.71875 43.875 2.34375 41.625C0.989583 39.375 0.3125 36.7188 0.3125 33.6562H9.53125C9.53125 36.2812 10.0417 38.1875 11.0625 39.375C12.0833 40.5625 13.75 41.1562 16.0625 41.1562C19.2708 41.1562 20.875 39.4583 20.875 36.0625Z" fill="#EAAA06"/>
<rect x="120" y="2" width="9" height="46" rx="4.5" fill="#EAAA06"/>
<rect x="89" y="2" width="9" height="46" rx="4.5" fill="#EAAA06"/>
<path d="M171.68 29.5078H166.078V42H159.047V7.875H171.727C175.758 7.875 178.867 8.77344 181.055 10.5703C183.242 12.3672 184.336 14.9062 184.336 18.1875C184.336 20.5156 183.828 22.4609 182.812 24.0234C181.812 25.5703 180.289 26.8047 178.242 27.7266L185.625 41.6719V42H178.078L171.68 29.5078ZM166.078 23.8125H171.75C173.516 23.8125 174.883 23.3672 175.852 22.4766C176.82 21.5703 177.305 20.3281 177.305 18.75C177.305 17.1406 176.844 15.875 175.922 14.9531C175.016 14.0312 173.617 13.5703 171.727 13.5703H166.078V23.8125Z" fill="#FAFAFA"/>
<rect x="36" y="2" width="9" height="46" rx="4.5" fill="#EAAA06"/>
<rect x="21" y="11" width="9" height="9" rx="4.5" fill="#EAAA06"/>
<rect y="30" width="10" height="10" rx="5" fill="#EAAA06"/>
<rect x="60.0016" y="0.310883" width="9" height="41" rx="4.5" transform="rotate(36.2762 60.0016 0.310883)" fill="#EAAA06"/>
<rect x="44.5399" y="20.5049" width="9" height="32" rx="4.5" transform="rotate(-25.5472 44.5399 20.5049)" fill="#EAAA06"/>
<rect x="72" y="2" width="9" height="46" rx="4.5" fill="#EAAA06"/>
<rect x="91" y="2" width="25" height="8" rx="4" fill="#EAAA06"/>
<rect x="93" y="21" width="20" height="8" rx="4" fill="#EAAA06"/>
<rect x="91" y="40" width="25" height="8" rx="4" fill="#EAAA06"/>
<rect x="122" y="40" width="24" height="8" rx="4" fill="#EAAA06"/>
</svg>
